<svg xmlns="http://www.w3.org/2000/svg" viewBox="0 0 32 32" fill="#26a17b">
  <path d="M16 0C7.164 0 0 7.163 0 16s7.164 16 16 16 16-7.163 16-16S24.836 0 16 0zm6.08 16.372c-.024.492-.204.966-.512 1.336-.308.37-.73.615-1.2.683l-4.708.688v2.804h1.7c.94 0 1.7.76 1.7 1.7s-.76 1.7-1.7 1.7h-1.7v2.812l4.708.688c.47.068.892.314 1.2.684.308.37.488.844.512 1.336.048.995-.336 1.96-1.048 2.672-1.02 1.02-2.556 1.186-3.764.508l-9.4-5.344c-.47-.268-.854-.684-1.048-1.172-.308-.37-.464-.824-.464-1.3v-10.688c0-.476.156-.93.464-1.3.308-.37.73-.615 1.2-.683l9.408-1.372c.47-.068.892-.314 1.2-.684.308-.37.488-.844.512-1.336.048-.996-.336-1.96-1.048-2.672-1.02-1.02-2.556-1.186-3.764-.508l-4.576 2.6c-.47.268-.854.684-1.048 1.172-.308.37-.464.824-.464 1.3v2.8h-1.7c-.94 0-1.7.76-1.7 1.7s.76 1.7 1.7 1.7h1.7v2.8c0 .476.156.93.464 1.3.308.37.73.615 1.2.683l4.576 2.6c1.208.678 2.744.512 3.764-.508.712-.712 1.096-1.676 1.048-2.672z"/>
</svg>
